<svg width="24" height="24" viewBox="0 0 24 24" fill="none" xmlns="http://www.w3.org/2000/svg">
<circle cx="12" cy="12" r="11.5" fill="#FBFBFB" stroke="#8020E0"/>
<path d="M17.7416 8.19919L15.8008 6.25835C15.5475 6.02042 15.2156 5.8839 14.8682 5.87476C14.5208 5.86562 14.1821 5.98449 13.9166 6.20877L7.54163 12.5838C7.31268 12.8147 7.17012 13.1173 7.13788 13.4409L6.8333 16.3946C6.82376 16.4984 6.83722 16.6029 6.87273 16.7009C6.90823 16.7988 6.96491 16.8877 7.03872 16.9613C7.1049 17.0269 7.1834 17.0789 7.2697 17.1141C7.356 17.1494 7.44841 17.1672 7.54163 17.1667H7.60538L10.5591 16.8975C10.8827 16.8653 11.1853 16.7227 11.4162 16.4938L17.7912 10.1188C18.0386 9.85737 18.1724 9.50855 18.1631 9.14873C18.1538 8.78892 18.0022 8.44746 17.7416 8.19919ZM10.4316 15.4809L8.30663 15.6792L8.49788 13.5542L12.5 9.60169L14.4125 11.5142L10.4316 15.4809ZM15.3333 10.565L13.435 8.66669L14.8162 7.25002L16.75 9.18377L15.3333 10.565Z" fill="#8020E0"/>
</svg>
