<svg width="27" height="27" viewBox="0 0 27 27" fill="none" xmlns="http://www.w3.org/2000/svg">
<path fill-rule="evenodd" clip-rule="evenodd" d="M13.5 27C20.9558 27 27 20.9558 27 13.5C27 6.04416 20.9558 0 13.5 0C6.04416 0 0 6.04416 0 13.5C0 20.9558 6.04416 27 13.5 27ZM11.3 9.296H7.844V15.752C7.844 17.128 8.236 18.2 9.02 18.968C9.964 19.896 11.404 20.36 13.34 20.36C15.26 20.36 16.692 19.896 17.636 18.968C18.132 18.488 18.452 17.984 18.596 17.456C18.756 16.912 18.836 16.272 18.836 15.536V9.296H15.38V15.2C15.38 15.984 15.188 16.56 14.804 16.928C14.436 17.264 13.948 17.432 13.34 17.432C12.748 17.432 12.268 17.264 11.9 16.928C11.5 16.56 11.3 15.984 11.3 15.2V9.296Z" fill="url(#paint0_linear)"/>
<defs>
<linearGradient id="paint0_linear" x1="13.6015" y1="-3.15508e-09" x2="13.5" y2="27" gradientUnits="userSpaceOnUse">
<stop stop-color="#5C22F1"/>
<stop offset="0.390625" stop-color="#8020E0"/>
<stop offset="1" stop-color="#E949FC"/>
</linearGradient>
</defs>
</svg>
